<?xml version="1.0" encoding="utf-8"?>
<!-- Generator: Adobe Illustrator 19.0.0, SVG Export Plug-In . SVG Version: 6.00 Build 0)  -->
<svg version="1.1" id="Capa_1" xmlns="http://www.w3.org/2000/svg" xmlns:xlink="http://www.w3.org/1999/xlink" x="0px" y="0px"
	 viewBox="-239 41 480 480" style="enable-background:new -239 41 480 480;" xml:space="preserve">
<style type="text/css">
	.st0{fill:url(#SVGID_1_);}
	.st1{fill:url(#SVGID_2_);}
	.st2{fill:url(#SVGID_3_);}
	.st3{fill:url(#SVGID_4_);}
	.st4{fill:url(#SVGID_5_);}
</style>
<g>
	<g>
		<linearGradient id="SVGID_1_" gradientUnits="userSpaceOnUse" x1="-239" y1="281" x2="241" y2="281">
			<stop  offset="0" style="stop-color:#F5634A"/>
			<stop  offset="1" style="stop-color:#FE9518"/>
		</linearGradient>
		<path class="st0" d="M233,161h-48V49c0-4.4-3.6-8-8-8h-408c-4.4,0-8,3.6-8,8v352c0,4.4,3.6,8,8,8h72v53.3l-16.9,11.9
			c-10.1,7.2-12.7,20.8-5.8,31.2c4.4,6.5,11.6,10.1,19,10.1c1.4,0,2.8-0.2,4.1-0.4c0.9,3.4,3.9,6,7.6,6h352c22.1,0,40-17.9,40-40
			V169C241,164.6,237.4,161,233,161z M-223,57h392v48h-392V57z M-223,393V121h392v40h-320c-4.4,0-8,3.6-8,8v224H-223z M-159.2,498.4
			c-3.1,2-7.2,1.1-9.2-1.9c-2-3.1-1.3-7.1,1.7-9.2L-50.1,405c3,5.7,6.5,11,10.4,16.1L-159.2,498.4z M-47,353c0-52.9,43.1-96,96-96
			s96,43.1,96,96s-43.1,96-96,96S-47,405.9-47,353z M225,481c0,13.2-10.8,24-24,24h-340.9L-29,433.2C-8.8,452.8,18.7,465,49,465
			c61.8,0,112-50.2,112-112S110.8,241,49,241S-63,291.2-63,353c0,13,2.3,25.4,6.4,37l-86.4,61V225h368V481z M225,209h-368v-32h368
			V209z"/>
	</g>
</g>
<g>
	<g>
		<linearGradient id="SVGID_2_" gradientUnits="userSpaceOnUse" x1="-29.248" y1="355.732" x2="120.592" y2="355.732">
			<stop  offset="0" style="stop-color:#F5634A"/>
			<stop  offset="1" style="stop-color:#FE9518"/>
		</linearGradient>
		<path class="st1" d="M105.4,302.5l-24.7,74.2l-24.2-66.4c-1.2-3.3-4.3-5.5-7.9-5.3c-3.5,0.2-6.5,2.6-7.3,6.1l-11.9,47.7
			l-13.9-18.5c-1.5-2-3.8-3.2-6.3-3.2c-2.4-0.2-4.8,1.1-6.4,3l-32,40l12.5,10l25.6-31.9l17.8,23.7c1.8,2.5,4.9,3.6,8,3
			c3-0.6,5.4-2.9,6.2-5.9l9.7-38.6l23.1,63.4c1.2,3.2,4.2,5.3,7.5,5.3c0,0,0.1,0,0.1,0c3.4,0,6.4-2.2,7.5-5.5l32-96L105.4,302.5z"/>
	</g>
</g>
<g>
	<g>
		<linearGradient id="SVGID_3_" gradientUnits="userSpaceOnUse" x1="-207" y1="81" x2="-191" y2="81">
			<stop  offset="0" style="stop-color:#F5634A"/>
			<stop  offset="1" style="stop-color:#FE9518"/>
		</linearGradient>
		<rect x="-207" y="73" class="st2" width="16" height="16"/>
	</g>
</g>
<g>
	<g>
		<linearGradient id="SVGID_4_" gradientUnits="userSpaceOnUse" x1="-175" y1="81" x2="-159" y2="81">
			<stop  offset="0" style="stop-color:#F5634A"/>
			<stop  offset="1" style="stop-color:#FE9518"/>
		</linearGradient>
		<rect x="-175" y="73" class="st3" width="16" height="16"/>
	</g>
</g>
<g>
	<g>
		<linearGradient id="SVGID_5_" gradientUnits="userSpaceOnUse" x1="-143" y1="81" x2="-127" y2="81">
			<stop  offset="0" style="stop-color:#F5634A"/>
			<stop  offset="1" style="stop-color:#FE9518"/>
		</linearGradient>
		<rect x="-143" y="73" class="st4" width="16" height="16"/>
	</g>
</g>
</svg>
