<?xml version="1.0" encoding="utf-8"?>
<!-- Generator: Adobe Illustrator 19.0.0, SVG Export Plug-In . SVG Version: 6.00 Build 0)  -->
<svg version="1.1" id="Capa_1" xmlns="http://www.w3.org/2000/svg" xmlns:xlink="http://www.w3.org/1999/xlink" x="0px" y="0px"
	 viewBox="-269 70.3 420.7 420.7" style="enable-background:new -269 70.3 420.7 420.7;" xml:space="preserve">
<style type="text/css">
	.st0{fill:url(#SVGID_1_);}
	.st1{fill:url(#SVGID_2_);}
	.st2{fill:url(#SVGID_3_);}
	.st3{fill:url(#SVGID_4_);}
</style>
<g>
	<g>
		<linearGradient id="SVGID_1_" gradientUnits="userSpaceOnUse" x1="-237.417" y1="280.6577" x2="120.103" y2="280.6577">
			<stop  offset="0" style="stop-color:#F5634A"/>
			<stop  offset="1" style="stop-color:#FE9518"/>
		</linearGradient>
		<path class="st0" d="M115.5,104.2C52.6,73.9-54.1,70.4-58.8,70.3c-4.5,0-111.1,3.6-174.1,33.8c-2.8,1.3-4.6,4.1-4.6,7.2v172.2
			c0,5.3,3.2,130.3,176,206.8c2.1,0.9,4.4,0.9,6.5,0c172.2-76.6,175-201.7,175-206.9V111.4C120.1,108.3,118.3,105.5,115.5,104.2z
			 M104.1,283.4c0,1.2-3,118.4-162.9,190.9c-159.3-72-162.8-186-162.9-190.8v-167c58.9-26.2,157.4-30,162.9-30.2s104,3.9,162.9,30.2
			V283.4z"/>
	</g>
</g>
<g>
	<g>
		<linearGradient id="SVGID_2_" gradientUnits="userSpaceOnUse" x1="-199.337" y1="280.6577" x2="82.343" y2="280.6577">
			<stop  offset="0" style="stop-color:#F5634A"/>
			<stop  offset="1" style="stop-color:#FE9518"/>
		</linearGradient>
		<path class="st1" d="M77.8,141.8c-49.3-24-132.6-26.4-136-26.5h-0.6c-3.8,0.1-87,2.7-136,26.4l0,0c-2.8,1.3-4.6,4.1-4.6,7.2v133.9
			c0,4.2,2.6,102.5,137.6,162.4c2.1,0.9,4.4,0.9,6.5,0C79.9,385.4,82.3,287,82.3,282.8V149C82.3,146,80.6,143.2,77.8,141.8z
			 M66.4,282.7c0,3.7-2.9,90.9-124.9,146.5c-122-56-124.8-142.8-124.9-146.4V154.2c45.6-19.8,120-22.6,124.9-22.9
			c4.9-0.2,79,3.1,124.6,22.9l0.3-0.1V282.7z"/>
	</g>
</g>
<g>
	<g>
		<linearGradient id="SVGID_3_" gradientUnits="userSpaceOnUse" x1="-133.897" y1="255.8765" x2="16.583" y2="255.8765">
			<stop  offset="0" style="stop-color:#F5634A"/>
			<stop  offset="1" style="stop-color:#FE9518"/>
		</linearGradient>
		<path class="st2" d="M0.6,223.3h-4c-4.7-30.9-33.6-52.2-64.5-47.5c-24.5,3.7-43.8,23-47.5,47.5h-2.5c-8.8,0-16,7.2-16,16v81.4
			c0,8.7,7,15.9,15.8,16H0.6c8.8,0,16-7.2,16-16v-81.4C16.6,230.4,9.4,223.3,0.6,223.3z M-59.5,190.6c19.4,0,36.1,13.7,40,32.7h-80
			C-95.7,204.2-79,190.5-59.5,190.6z M0.6,320.6h-118.7v-81.4H0.6V320.6z"/>
	</g>
</g>
<g>
	<g>
		<linearGradient id="SVGID_4_" gradientUnits="userSpaceOnUse" x1="-66.777" y1="279.995" x2="-50.777" y2="279.995">
			<stop  offset="0" style="stop-color:#F5634A"/>
			<stop  offset="1" style="stop-color:#FE9518"/>
		</linearGradient>
		<path class="st3" d="M-58.8,258.3c-4.4,0-8,3.6-8,8v27.4c0,4.4,3.6,8,8,8s8-3.6,8-8v-27.4C-50.8,261.9-54.4,258.3-58.8,258.3z"/>
	</g>
</g>
</svg>
